<?xml version="1.0" encoding="utf-8"?>
<!-- Generator: Adobe Illustrator 19.0.0, SVG Export Plug-In . SVG Version: 6.00 Build 0)  -->
<svg version="1.1" id="Layer_1" xmlns="http://www.w3.org/2000/svg" xmlns:xlink="http://www.w3.org/1999/xlink" x="0px" y="0px"
	 viewBox="0 0 100 100" style="enable-background:new 0 0 100 100;" xml:space="preserve">
<style type="text/css">
	.st0{fill-rule:evenodd;clip-rule:evenodd;fill:#FFFFFF;}
</style>
<path id="XMLID_1_" class="st0" d="M50,6.1C25.1,6.1,4.9,26.2,4.9,51.1c0,19.9,12.9,36.8,30.8,42.8c2.3,0.4,3.1-1,3.1-2.2
	c0-1.1,0-3.9-0.1-7.7c-12.5,2.7-15.2-6-15.2-6c-2-5.2-5-6.6-5-6.6c-4.1-2.8,0.3-2.7,0.3-2.7c4.5,0.3,6.9,4.6,6.9,4.6
	c4,6.9,10.5,4.9,13.1,3.7c0.4-2.9,1.6-4.9,2.9-6c-10-1.1-20.5-5-20.5-22.3c0-4.9,1.8-8.9,4.6-12.1c-0.5-1.1-2-5.7,0.4-11.9
	c0,0,3.8-1.2,12.4,4.6c3.6-1,7.4-1.5,11.3-1.5c3.8,0,7.7,0.5,11.3,1.5c8.6-5.8,12.4-4.6,12.4-4.6c2.5,6.2,0.9,10.8,0.4,11.9
	c2.9,3.1,4.6,7.2,4.6,12.1c0,17.3-10.5,21.1-20.6,22.2c1.6,1.4,3.1,4.1,3.1,8.3c0,6-0.1,10.9-0.1,12.4c0,1.2,0.8,2.6,3.1,2.2
	c17.9-6,30.8-22.8,30.8-42.7C95.1,26.2,74.9,6.1,50,6.1z"/>
</svg>
