<?xml version="1.0" encoding="utf-8"?>
<!-- Generator: Adobe Illustrator 19.0.0, SVG Export Plug-In . SVG Version: 6.00 Build 0)  -->
<svg version="1.1" id="Layer_1" xmlns="http://www.w3.org/2000/svg" xmlns:xlink="http://www.w3.org/1999/xlink" x="0px" y="0px"
	 viewBox="85 -85 270 270" style="enable-background:new 85 -85 270 270;" xml:space="preserve">
<style type="text/css">
	.st0{fill:#FFFFFF;}
</style>
<g id="Layer_1_1_">
</g>
<g id="Layer_3">
</g>
<g id="Layer_4">
</g>
<g id="Layer_2">
	<g>
		
			<rect x="203.6" y="32.9" transform="matrix(-0.9482 0.3176 -0.3176 -0.9482 449.2497 28.5674)" class="st0" width="37.3" height="36.1"/>
		<g>
			
				<rect x="203.6" y="32.9" transform="matrix(-0.9482 0.3176 -0.3176 -0.9482 449.2497 28.5674)" class="st0" width="37.3" height="36.1"/>
			<path class="st0" d="M343.9,14.2C316.5-77,277-98.2,185.8-70.9S73.4-4,100.7,87.2s66.8,112.5,158.1,85.1S371.2,105.4,343.9,14.2z
				 M297.8,73.4l-17.2,5.7l5.9,17.8c2.3,7.2-1.5,15.1-8.7,17.4c-1.5,0.4-3.2,0.8-4.7,0.6c-5.5-0.2-10.8-3.8-12.7-9.3l-5.9-17.8
				l-35.4,11.9l5.9,17.8c2.3,7.2-1.5,15.1-8.7,17.4c-1.5,0.4-3.2,0.8-4.7,0.6c-5.5-0.2-10.8-3.8-12.7-9.3l-5.9-17.8l-17.2,5.7
				c-1.5,0.4-3.2,0.8-4.7,0.6c-5.5-0.2-10.8-3.8-12.7-9.3c-2.3-7.2,1.5-15.1,8.7-17.4l17.2-5.7l-11.5-34.2l-17.2,5.7
				c-1.5,0.4-3.2,0.8-4.7,0.6c-5.5-0.2-10.8-3.8-12.7-9.3c-2.3-7.2,1.5-15.1,8.7-17.4l17.2-5.7l-5.9-17.8
				c-2.3-7.2,1.5-15.1,8.7-17.4s15.1,1.5,17.4,8.7l5.9,17.8l35.4-11.9l-5.9-17.8c-2.3-7.2,1.5-15.1,8.7-17.4
				c7.2-2.3,15.1,1.5,17.4,8.7l5.9,17.8L269-13c7.2-2.3,15.1,1.5,17.4,8.7c2.3,7.2-1.5,15.1-8.7,17.4l-17.2,5.7L271.9,53l17.2-5.7
				c7.2-2.3,15.1,1.5,17.4,8.7C308.9,63.2,305,71.1,297.8,73.4z"/>
		</g>
	</g>
</g>
</svg>
