<?xml version="1.0" encoding="utf-8"?>
<!-- Generator: Adobe Illustrator 19.0.0, SVG Export Plug-In . SVG Version: 6.00 Build 0)  -->
<svg version="1.1" id="Layer_1" xmlns="http://www.w3.org/2000/svg" xmlns:xlink="http://www.w3.org/1999/xlink" x="0px" y="0px"
	 viewBox="0 0 324 324" style="enable-background:new 0 0 324 324;" xml:space="preserve">
<style type="text/css">
	.st0{fill:#FFFFFF;}
</style>
<g id="XMLID_1_">
	<path id="XMLID_10_" class="st0" d="M324,8.3v307.3c0,4.6-3.7,8.3-8.3,8.3h-39.3c-4.6,0-8.3-3.7-8.3-8.3V64.3
		c0-4.6-3.7-8.3-8.3-8.3H8.3C3.7,56,0,52.3,0,47.7V8.3C0,3.7,3.7,0,8.3,0h307.3C320.3,0,324,3.7,324,8.3z"/>
	<path id="XMLID_9_" class="st0" d="M211,122v193c0,5-4,9-9,9h-60.4c0,0-0.1,0-0.1-0.1l-16.8-74.3c0,0,0-0.1,0-0.1
		c10.3-6.4,17.1-17.7,17.2-30.7c0.2-20.9-17.7-37.9-38.5-36.8C84.3,183.1,69,199,69,218.5c0,13,6.8,24.4,17,30.8l-0.1,0.1L69,323.9
		c0,0-0.1,0.1-0.1,0.1H9c-5,0-9-4-9-9V122c0-5,4-9,9-9h193C207,113,211,117,211,122z"/>
</g>
</svg>
